<?xml version="1.0" standalone="no"?>
<!DOCTYPE svg PUBLIC "-//W3C//DTD SVG 20010904//EN"
 "http://www.w3.org/TR/2001/REC-SVG-20010904/DTD/svg10.dtd">
<svg version="1.0" xmlns="http://www.w3.org/2000/svg"
 width="2000.000000pt" height="2000.000000pt" viewBox="0 0 2000.000000 2000.000000"
 preserveAspectRatio="xMidYMid meet">

<g transform="translate(0.000000,2000.000000) scale(0.100000,-0.100000)"
fill="#ffffff" stroke="none">
<path d="M9865 13249 c-112 -10 -354 -52 -418 -73 -23 -8 -82 -26 -132 -41
-282 -84 -617 -265 -875 -472 -120 -96 -321 -300 -417 -423 -328 -423 -511
-907 -554 -1464 -18 -233 8 -517 72 -776 251 -1018 1132 -1814 2189 -1975 61
-9 207 -19 348 -22 l242 -6 -2 1369 -3 1369 -155 0 -155 0 -3 -1207 -2 -1208
-48 0 c-72 0 -294 37 -417 69 -772 202 -1394 789 -1638 1546 -74 231 -101 416
-100 700 1 190 4 239 27 365 87 491 297 901 640 1248 197 200 394 339 661 468
213 103 392 158 645 201 153 26 600 26 755 0 474 -79 865 -268 1234 -597 292
-260 560 -709 660 -1105 160 -628 74 -1236 -250 -1781 -35 -57 -65 -104 -68
-104 -4 0 -12 28 -18 61 -29 155 -149 321 -292 406 -63 38 -186 86 -279 110
l-34 8 266 292 266 292 0 121 0 120 -682 -2 -683 -3 -3 -142 -3 -143 461 -2
461 -3 -256 -285 -255 -285 -2 -80 c-1 -44 -3 -97 -4 -118 l-1 -38 76 8 c260
28 469 -45 576 -201 59 -86 77 -155 72 -271 -2 -60 -11 -120 -22 -150 -27 -77
-99 -178 -168 -236 -176 -148 -481 -302 -762 -384 -49 -15 -108 -33 -130 -39
l-40 -13 -3 -156 c-3 -183 -17 -169 134 -132 311 75 600 201 876 382 532 348
923 893 1088 1516 65 246 75 334 75 652 -1 275 -2 298 -29 445 -63 348 -174
644 -351 935 -430 709 -1195 1184 -2020 1255 -140 11 -407 11 -550 -1z"/>
<path d="M6855 7670 c-77 -16 -157 -52 -218 -98 -276 -208 -229 -641 86 -791
84 -40 144 -53 252 -54 160 -1 267 38 371 135 35 33 64 63 64 67 0 4 -29 31
-65 60 l-66 52 -45 -46 c-221 -221 -603 -67 -582 234 9 119 71 206 188 259 45
21 70 26 135 25 105 0 176 -28 251 -95 l55 -51 60 59 c32 32 59 63 59 70 0 6
-21 29 -47 50 -113 94 -194 124 -348 129 -60 2 -128 0 -150 -5z"/>
<path d="M9696 7669 c-74 -15 -185 -70 -240 -120 -131 -116 -181 -280 -140
-459 38 -168 170 -298 351 -345 74 -19 242 -19 316 0 81 21 152 59 209 113 78
72 78 73 2 132 l-65 51 -59 -54 c-179 -166 -468 -108 -550 111 -70 186 43 375
248 412 116 21 228 -14 313 -96 l46 -45 61 53 c33 29 61 59 61 67 1 18 -70 84
-126 117 -82 48 -150 66 -268 69 -60 2 -132 0 -159 -6z"/>
<path d="M7853 7658 c-6 -7 -78 -217 -161 -465 l-150 -453 109 0 c60 0 109 1
109 3 0 2 69 209 154 460 84 251 151 459 148 462 -12 11 -200 5 -209 -7z"/>
<path d="M8265 7659 c-3 -8 -4 -216 -3 -464 l3 -450 95 0 95 0 3 148 3 147
122 0 122 0 100 -148 100 -147 108 -3 c59 -1 107 0 107 3 0 6 -85 132 -177
262 l-44 62 34 15 c99 41 161 143 161 266 0 148 -77 249 -225 295 -74 24 -596
35 -604 14z m555 -175 c110 -64 107 -213 -5 -269 -34 -17 -64 -21 -197 -23
l-158 -4 0 162 0 162 163 -3 c142 -4 166 -7 197 -25z"/>
<path d="M10475 7658 c-3 -7 -4 -215 -3 -463 l3 -450 373 -3 372 -2 0 80 0 80
-275 0 -275 0 -2 383 -3 382 -93 3 c-68 2 -94 -1 -97 -10z"/>
<path d="M11437 7663 c-4 -3 -7 -213 -7 -465 l0 -458 400 0 400 0 0 80 0 80
-305 0 -305 0 0 120 0 120 260 0 260 0 0 75 0 75 -257 2 -258 3 -3 108 -3 107
296 0 296 0 -3 78 -3 77 -381 3 c-209 1 -383 -1 -387 -5z"/>
<path d="M12430 7590 l0 -80 105 0 105 0 2 -382 3 -383 98 -3 97 -3 0 466 0
465 -205 0 -205 0 0 -80z"/>
<path d="M13094 7656 c-3 -7 -4 -42 -2 -77 l3 -64 228 -5 227 -5 -110 -110
-110 -110 0 -67 0 -68 103 0 c78 0 112 -5 144 -19 53 -25 77 -68 70 -125 -19
-138 -276 -158 -451 -36 -31 22 -59 40 -61 40 -2 0 -22 -30 -45 -66 l-42 -66
28 -29 c75 -79 235 -124 407 -117 127 6 194 27 264 84 122 100 125 305 5 404
-41 34 -129 70 -169 70 -23 0 -12 14 91 124 l116 124 0 66 0 66 -345 0 c-282
0 -347 -3 -351 -14z"/>
</g>
</svg>
